<svg width="2498" height="687" viewBox="0 0 2498 687" fill="none" xmlns="http://www.w3.org/2000/svg">
<g clip-path="url(#paint0_diamond_25_48_clip_path)" data-figma-skip-parse="true"><g transform="matrix(2.176 -0.585 0.546128 3.79268 527 524)"><rect x="0" y="0" width="1024.4" height="282.223" fill="url(#paint0_diamond_25_48)" opacity="1" shape-rendering="crispEdges"/><rect x="0" y="0" width="1024.4" height="282.223" transform="scale(1 -1)" fill="url(#paint0_diamond_25_48)" opacity="1" shape-rendering="crispEdges"/><rect x="0" y="0" width="1024.4" height="282.223" transform="scale(-1 1)" fill="url(#paint0_diamond_25_48)" opacity="1" shape-rendering="crispEdges"/><rect x="0" y="0" width="1024.4" height="282.223" transform="scale(-1)" fill="url(#paint0_diamond_25_48)" opacity="1" shape-rendering="crispEdges"/></g></g><path d="M16.6 524L10.2 488.8C26.7333 488.8 38.7333 487.467 46.2 484.8C53.6667 481.6 58.4667 476.8 60.6 470.4C62.7333 463.467 64.0667 454.4 64.6 443.2C66.2 405.333 67.5333 370.933 68.6 340C69.6667 309.067 70.2 279.733 70.2 252V136.8C70.2 119.2 66.2 104 58.2 91.2C50.7333 77.8666 33.6667 71.2 7 71.2L0.600003 32.8C12.3333 33.3333 23.2667 33.8666 33.4 34.4C43.5333 34.4 52.8667 34.4 61.4 34.4C74.7333 34.4 84.6 34.4 91 34.4C97.4 34.4 103.267 34.4 108.6 34.4C113.933 33.8666 121.4 33.3333 131 32.8C145.933 31.7333 161.4 30.9333 177.4 30.4C193.4 29.8666 205.933 29.6 215 29.6C260.867 29.6 297.667 39.4666 325.4 59.2C353.133 78.9333 367 107.2 367 144C367 166.933 361.133 189.333 349.4 211.2C338.2 233.067 322.2 249.067 301.4 259.2C332.333 267.733 355.8 283.2 371.8 305.6C387.8 328 395.8 353.867 395.8 383.2C395.8 417.333 386.2 444.8 367 465.6C347.8 485.867 323 500.8 292.6 510.4C262.733 519.467 231 524 197.4 524H16.6ZM164.6 247.2L207.8 245.6C229.667 244.533 246.467 238.933 258.2 228.8C270.467 218.133 279 205.6 283.8 191.2C288.6 176.8 291 163.733 291 152C291 125.333 281.667 104.267 263 88.8C244.867 73.3333 220.867 65.6 191 65.6C180.867 65.6 169.933 66.4 158.2 68C147 69.6 138.2 71.7333 131.8 74.4C129.667 97.8667 128.067 124.267 127 153.6C126.467 182.933 126.2 213.867 126.2 246.4L164.6 247.2ZM190.2 482.4C230.733 482.4 262.467 473.867 285.4 456.8C308.333 439.2 319.8 414.933 319.8 384C319.8 355.733 309.667 332.533 289.4 314.4C269.667 295.733 239.8 286.4 199.8 286.4C188.6 286.4 175.8 287.2 161.4 288.8C147 289.867 135 291.2 125.4 292.8V320C125.4 341.333 125.933 364 127 388C128.6 412 130.467 430.133 132.6 442.4C135.8 458.933 141.933 469.867 151 475.2C160.6 480 173.667 482.4 190.2 482.4ZM450.506 524L444.106 486.4H452.106C472.373 486.4 487.306 482.4 496.906 474.4C507.04 466.4 513.173 454.933 515.306 440C516.373 431.467 517.44 420.8 518.506 408C520.106 395.2 520.906 381.867 520.906 368C520.906 342.933 520.64 318.133 520.106 293.6C520.106 268.533 519.573 244.8 518.506 222.4C517.973 209.067 512.106 201.067 500.906 198.4C490.24 195.2 472.906 193.6 448.906 193.6L444.906 156.8C457.173 156.8 471.04 156.267 486.506 155.2C501.973 153.6 517.173 152 532.106 150.4C547.573 148.8 560.906 147.2 572.106 145.6C583.306 144 590.773 142.933 594.506 142.4C590.773 176 587.573 210.133 584.906 244.8C582.773 278.933 581.173 310.667 580.106 340C579.04 368.8 578.506 392.533 578.506 411.2C578.506 445.333 583.04 467.467 592.106 477.6C601.706 487.733 615.306 492.8 632.906 492.8H636.106L642.506 524H450.506ZM538.506 122.4C524.106 122.4 512.64 118.133 504.106 109.6C495.573 101.067 491.306 89.8666 491.306 76C491.306 60.5333 496.106 48.2666 505.706 39.2C515.84 29.6 527.573 24.8 540.906 24.8C554.24 24.8 565.706 29.0666 575.306 37.6C584.906 46.1333 589.706 57.8667 589.706 72.8C589.706 87.7333 584.906 99.7333 575.306 108.8C565.706 117.867 553.44 122.4 538.506 122.4ZM715.056 686.4C698.523 686.4 683.056 684.533 668.656 680.8C654.79 677.067 645.723 674.133 641.456 672L655.056 640.8C659.323 641.333 663.323 641.867 667.056 642.4C670.79 643.467 674.523 644 678.256 644C701.723 644 721.456 633.867 737.456 613.6C753.99 593.867 764.123 564.533 767.856 525.6C769.99 505.333 771.056 485.067 771.056 464.8C771.59 444.533 771.856 425.067 771.856 406.4C771.856 368.533 771.056 334.667 769.456 304.8C768.39 274.933 767.056 253.867 765.456 241.6C763.856 227.733 757.456 216.8 746.256 208.8C735.056 200.267 715.323 196 687.056 196L683.856 159.2C703.59 159.2 723.323 158.933 743.056 158.4C763.323 157.333 781.456 156.267 797.456 155.2C813.99 153.6 826.523 152.267 835.056 151.2C833.99 167.2 832.923 188.267 831.856 214.4C831.323 240.533 830.79 269.067 830.256 300C829.723 330.4 829.19 360.8 828.656 391.2C828.656 421.067 828.656 448 828.656 472V534.4C828.656 586.667 818.79 625.067 799.056 649.6C779.323 674.133 751.323 686.4 715.056 686.4ZM782.256 98.4C767.856 98.4 756.39 94.1333 747.856 85.6C739.323 77.0667 735.056 65.8667 735.056 52C735.056 36.5333 739.856 24.2666 749.456 15.2C759.59 5.59997 771.323 0.799965 784.656 0.799965C797.99 0.799965 809.456 5.06664 819.056 13.6C828.656 22.1333 833.456 33.8666 833.456 48.8C833.456 63.7333 828.656 75.7333 819.056 84.8C809.456 93.8667 797.19 98.4 782.256 98.4ZM1039.39 535.2C986.06 535.2 945.794 520 918.594 489.6C891.927 458.667 878.594 417.333 878.594 365.6C878.594 321.867 887.127 283.733 904.194 251.2C921.26 218.133 944.994 192.267 975.394 173.6C1005.79 154.933 1040.46 145.6 1079.39 145.6C1108.73 145.6 1134.59 151.467 1156.99 163.2C1179.93 174.4 1197.79 192.533 1210.59 217.6C1223.93 242.133 1230.59 274.667 1230.59 315.2C1230.59 342.4 1227.13 369.067 1220.19 395.2C1213.26 421.333 1202.06 445.067 1186.59 466.4C1171.66 487.2 1151.93 504 1127.39 516.8C1103.39 529.067 1074.06 535.2 1039.39 535.2ZM1054.59 497.6C1076.99 497.6 1095.93 489.867 1111.39 474.4C1126.86 458.933 1138.33 438.667 1145.79 413.6C1153.79 388.533 1157.79 361.867 1157.79 333.6C1157.79 287.733 1148.46 250.933 1129.79 223.2C1111.13 194.933 1086.86 180.8 1056.99 180.8C1035.66 180.8 1017.53 187.733 1002.59 201.6C987.66 215.467 976.194 234.4 968.194 258.4C960.727 282.4 956.994 309.6 956.994 340C956.994 369.333 960.727 396 968.194 420C975.66 444 986.594 462.933 1000.99 476.8C1015.93 490.667 1033.79 497.6 1054.59 497.6ZM1302.41 524L1297.61 485.6C1300.27 486.133 1302.94 486.4 1305.61 486.4C1308.27 486.4 1310.94 486.4 1313.61 486.4C1327.47 486.4 1339.47 483.733 1349.61 478.4C1360.27 472.533 1366.14 462.667 1367.21 448.8C1369.87 421.6 1371.21 393.6 1371.21 364.8C1371.74 336 1372.01 311.467 1372.01 291.2C1372.01 268.8 1370.94 250.667 1368.81 236.8C1366.67 222.933 1360.01 212.8 1348.81 206.4C1338.14 199.467 1320.01 195.733 1294.41 195.2L1290.41 158.4C1302.67 158.4 1316.27 158.133 1331.21 157.6C1346.67 156.533 1361.87 155.467 1376.81 154.4C1392.27 153.333 1405.61 152.533 1416.81 152C1428.54 150.933 1436.54 150.133 1440.81 149.6C1440.81 152.267 1440.01 158.667 1438.41 168.8C1437.34 178.4 1436.01 188.533 1434.41 199.2C1432.81 209.867 1431.21 217.867 1429.61 223.2C1440.81 210.4 1454.67 198.4 1471.21 187.2C1487.74 175.467 1505.61 166.133 1524.81 159.2C1544.01 151.733 1563.47 148 1583.21 148C1606.67 148 1626.41 154.133 1642.41 166.4C1658.41 178.133 1669.07 198.667 1674.41 228C1675.47 232.267 1676.27 240.267 1676.81 252C1677.87 263.733 1678.14 277.867 1677.61 294.4L1676.01 358.4C1675.47 382.933 1674.67 400.8 1673.61 412C1673.07 423.2 1672.81 431.733 1672.81 437.6C1672.81 454.133 1675.74 466.4 1681.61 474.4C1687.47 482.4 1694.67 487.467 1703.21 489.6C1711.74 491.733 1720.01 492.8 1728.01 492.8L1733.61 524H1542.41L1536.01 490.4H1552.01C1569.07 490.4 1581.87 487.2 1590.41 480.8C1598.94 473.867 1604.54 460.533 1607.21 440.8C1608.27 433.333 1609.07 423.733 1609.61 412C1610.67 399.733 1611.21 387.2 1611.21 374.4C1611.74 361.6 1612.01 350.4 1612.01 340.8C1612.01 325.867 1611.47 311.467 1610.41 297.6C1609.87 283.733 1609.07 273.067 1608.01 265.6C1604.81 244.8 1596.81 229.867 1584.01 220.8C1571.74 211.2 1556.27 206.4 1537.61 206.4C1513.61 206.4 1493.34 211.733 1476.81 222.4C1460.27 233.067 1448.54 242.4 1441.61 250.4C1440.54 280.8 1439.47 312.8 1438.41 346.4C1437.87 379.467 1437.61 410.667 1437.61 440C1437.61 456.533 1440.27 468.8 1445.61 476.8C1451.47 484.267 1458.41 489.067 1466.41 491.2C1474.41 493.333 1482.41 494.4 1490.41 494.4L1496.01 524H1302.41ZM1774.46 524L1768.06 486.4C1786.73 485.333 1801.93 481.333 1813.66 474.4C1825.4 466.933 1833.93 455.467 1839.26 440L1972.86 44C1985.13 42.4 1997.4 39.7333 2009.66 36C2022.46 32.2666 2034.73 28.5333 2046.46 24.8L2188.86 431.2C2192.6 440.8 2196.6 450.4 2200.86 460C2205.66 469.6 2212.33 477.6 2220.86 484C2229.4 490.4 2240.6 493.6 2254.46 493.6L2260.06 524H2069.66L2064.06 488.8C2083.26 488.8 2098.2 486.933 2108.86 483.2C2119.53 479.467 2124.86 473.333 2124.86 464.8C2124.86 458.4 2121.93 445.6 2116.06 426.4C2110.73 406.667 2102.73 381.6 2092.06 351.2L1924.86 352.8C1917.4 377.867 1911.8 396.8 1908.06 409.6C1904.33 422.4 1901.93 432 1900.86 438.4C1899.8 444.267 1899.26 449.067 1899.26 452.8C1899.26 466.133 1902.46 475.733 1908.86 481.6C1915.26 486.933 1922.73 490.133 1931.26 491.2C1940.33 492.267 1948.86 492.8 1956.86 492.8H1960.06L1966.46 524H1774.46ZM2032.86 192L2008.06 92.8C1992.6 140.8 1979.26 182.4 1968.06 217.6C1956.86 252.8 1947.26 282.933 1939.26 308L2075.26 304.8C2063 271.2 2048.86 233.6 2032.86 192ZM2293.38 524L2288.58 485.6C2308.31 485.6 2324.31 482.667 2336.58 476.8C2349.38 470.933 2356.31 458.4 2357.38 439.2C2358.45 425.867 2359.25 409.333 2359.78 389.6C2360.31 369.867 2360.85 348.267 2361.38 324.8C2361.91 301.333 2362.18 278.4 2362.18 256C2362.18 227.733 2361.91 202.133 2361.38 179.2C2360.85 155.733 2360.31 139.733 2359.78 131.2C2359.25 118.933 2357.38 108.267 2354.18 99.2C2351.51 90.1333 2345.38 83.2 2335.78 78.4C2326.71 73.0666 2312.05 70.4 2291.78 70.4L2286.18 31.2C2319.25 32.8 2350.71 33.6 2380.58 33.6C2401.38 33.6 2421.11 33.3333 2439.78 32.8C2458.45 31.7333 2476.05 30.9333 2492.58 30.4L2497.38 68.8C2478.71 69.3333 2463.51 72.5333 2451.78 78.4C2440.05 83.7333 2433.38 96 2431.78 115.2C2429.65 143.467 2427.78 174.4 2426.18 208C2424.58 241.067 2423.78 277.067 2423.78 316C2423.78 335.2 2424.05 353.6 2424.58 371.2C2425.11 388.8 2425.65 408.267 2426.18 429.6C2427.25 451.467 2434.18 467.467 2446.98 477.6C2460.31 487.733 2474.98 492.8 2490.98 492.8L2497.38 524H2293.38Z" data-figma-gradient-fill="{&#34;type&#34;:&#34;GRADIENT_DIAMOND&#34;,&#34;stops&#34;:[{&#34;color&#34;:{&#34;r&#34;:1.0,&#34;g&#34;:0.88999998569488525,&#34;b&#34;:0.44999998807907104,&#34;a&#34;:1.0},&#34;position&#34;:0.0},{&#34;color&#34;:{&#34;r&#34;:0.95661908388137817,&#34;g&#34;:0.75131285190582275,&#34;b&#34;:0.62418365478515625,&#34;a&#34;:1.0},&#34;position&#34;:0.53819906711578369},{&#34;color&#34;:{&#34;r&#34;:0.86302101612091064,&#34;g&#34;:0.45208331942558289,&#34;b&#34;:1.0,&#34;a&#34;:1.0},&#34;position&#34;:1.0}],&#34;stopsVar&#34;:[{&#34;color&#34;:{&#34;r&#34;:1.0,&#34;g&#34;:0.88999998569488525,&#34;b&#34;:0.44999998807907104,&#34;a&#34;:1.0},&#34;position&#34;:0.0},{&#34;color&#34;:{&#34;r&#34;:0.95661908388137817,&#34;g&#34;:0.75131285190582275,&#34;b&#34;:0.62418365478515625,&#34;a&#34;:1.0},&#34;position&#34;:0.53819906711578369},{&#34;color&#34;:{&#34;r&#34;:0.86302101612091064,&#34;g&#34;:0.45208331942558289,&#34;b&#34;:1.0,&#34;a&#34;:1.0},&#34;position&#34;:1.0}],&#34;transform&#34;:{&#34;m00&#34;:4352.000488281250,&#34;m01&#34;:1092.255371093750,&#34;m02&#34;:-2195.12792968750,&#34;m10&#34;:-1170.0,&#34;m11&#34;:7585.363281250,&#34;m12&#34;:-2683.6816406250},&#34;opacity&#34;:1.0,&#34;blendMode&#34;:&#34;NORMAL&#34;,&#34;visible&#34;:true}"/>
<defs>
<clipPath id="paint0_diamond_25_48_clip_path"><path d="M16.6 524L10.2 488.8C26.7333 488.8 38.7333 487.467 46.2 484.8C53.6667 481.6 58.4667 476.8 60.6 470.4C62.7333 463.467 64.0667 454.4 64.6 443.2C66.2 405.333 67.5333 370.933 68.6 340C69.6667 309.067 70.2 279.733 70.2 252V136.8C70.2 119.2 66.2 104 58.2 91.2C50.7333 77.8666 33.6667 71.2 7 71.2L0.600003 32.8C12.3333 33.3333 23.2667 33.8666 33.4 34.4C43.5333 34.4 52.8667 34.4 61.4 34.4C74.7333 34.4 84.6 34.4 91 34.4C97.4 34.4 103.267 34.4 108.6 34.4C113.933 33.8666 121.4 33.3333 131 32.8C145.933 31.7333 161.4 30.9333 177.4 30.4C193.4 29.8666 205.933 29.6 215 29.6C260.867 29.6 297.667 39.4666 325.4 59.2C353.133 78.9333 367 107.2 367 144C367 166.933 361.133 189.333 349.4 211.2C338.2 233.067 322.2 249.067 301.4 259.2C332.333 267.733 355.8 283.2 371.8 305.6C387.8 328 395.8 353.867 395.8 383.2C395.8 417.333 386.2 444.8 367 465.6C347.8 485.867 323 500.8 292.6 510.4C262.733 519.467 231 524 197.4 524H16.6ZM164.6 247.2L207.8 245.6C229.667 244.533 246.467 238.933 258.2 228.8C270.467 218.133 279 205.6 283.8 191.2C288.6 176.8 291 163.733 291 152C291 125.333 281.667 104.267 263 88.8C244.867 73.3333 220.867 65.6 191 65.6C180.867 65.6 169.933 66.4 158.2 68C147 69.6 138.2 71.7333 131.8 74.4C129.667 97.8667 128.067 124.267 127 153.6C126.467 182.933 126.2 213.867 126.2 246.4L164.6 247.2ZM190.2 482.4C230.733 482.4 262.467 473.867 285.4 456.8C308.333 439.2 319.8 414.933 319.8 384C319.8 355.733 309.667 332.533 289.4 314.4C269.667 295.733 239.8 286.4 199.8 286.4C188.6 286.4 175.8 287.2 161.4 288.8C147 289.867 135 291.2 125.4 292.8V320C125.4 341.333 125.933 364 127 388C128.6 412 130.467 430.133 132.6 442.4C135.8 458.933 141.933 469.867 151 475.2C160.6 480 173.667 482.4 190.2 482.4ZM450.506 524L444.106 486.4H452.106C472.373 486.4 487.306 482.4 496.906 474.4C507.04 466.4 513.173 454.933 515.306 440C516.373 431.467 517.44 420.8 518.506 408C520.106 395.2 520.906 381.867 520.906 368C520.906 342.933 520.64 318.133 520.106 293.6C520.106 268.533 519.573 244.8 518.506 222.4C517.973 209.067 512.106 201.067 500.906 198.4C490.24 195.2 472.906 193.6 448.906 193.6L444.906 156.8C457.173 156.8 471.04 156.267 486.506 155.2C501.973 153.6 517.173 152 532.106 150.4C547.573 148.8 560.906 147.2 572.106 145.6C583.306 144 590.773 142.933 594.506 142.4C590.773 176 587.573 210.133 584.906 244.8C582.773 278.933 581.173 310.667 580.106 340C579.04 368.8 578.506 392.533 578.506 411.2C578.506 445.333 583.04 467.467 592.106 477.6C601.706 487.733 615.306 492.8 632.906 492.8H636.106L642.506 524H450.506ZM538.506 122.4C524.106 122.4 512.64 118.133 504.106 109.6C495.573 101.067 491.306 89.8666 491.306 76C491.306 60.5333 496.106 48.2666 505.706 39.2C515.84 29.6 527.573 24.8 540.906 24.8C554.24 24.8 565.706 29.0666 575.306 37.6C584.906 46.1333 589.706 57.8667 589.706 72.8C589.706 87.7333 584.906 99.7333 575.306 108.8C565.706 117.867 553.44 122.4 538.506 122.4ZM715.056 686.4C698.523 686.4 683.056 684.533 668.656 680.8C654.79 677.067 645.723 674.133 641.456 672L655.056 640.8C659.323 641.333 663.323 641.867 667.056 642.4C670.79 643.467 674.523 644 678.256 644C701.723 644 721.456 633.867 737.456 613.6C753.99 593.867 764.123 564.533 767.856 525.6C769.99 505.333 771.056 485.067 771.056 464.8C771.59 444.533 771.856 425.067 771.856 406.4C771.856 368.533 771.056 334.667 769.456 304.8C768.39 274.933 767.056 253.867 765.456 241.6C763.856 227.733 757.456 216.8 746.256 208.8C735.056 200.267 715.323 196 687.056 196L683.856 159.2C703.59 159.2 723.323 158.933 743.056 158.4C763.323 157.333 781.456 156.267 797.456 155.2C813.99 153.6 826.523 152.267 835.056 151.2C833.99 167.2 832.923 188.267 831.856 214.4C831.323 240.533 830.79 269.067 830.256 300C829.723 330.4 829.19 360.8 828.656 391.2C828.656 421.067 828.656 448 828.656 472V534.4C828.656 586.667 818.79 625.067 799.056 649.6C779.323 674.133 751.323 686.4 715.056 686.4ZM782.256 98.4C767.856 98.4 756.39 94.1333 747.856 85.6C739.323 77.0667 735.056 65.8667 735.056 52C735.056 36.5333 739.856 24.2666 749.456 15.2C759.59 5.59997 771.323 0.799965 784.656 0.799965C797.99 0.799965 809.456 5.06664 819.056 13.6C828.656 22.1333 833.456 33.8666 833.456 48.8C833.456 63.7333 828.656 75.7333 819.056 84.8C809.456 93.8667 797.19 98.4 782.256 98.4ZM1039.39 535.2C986.06 535.2 945.794 520 918.594 489.6C891.927 458.667 878.594 417.333 878.594 365.6C878.594 321.867 887.127 283.733 904.194 251.2C921.26 218.133 944.994 192.267 975.394 173.6C1005.79 154.933 1040.46 145.6 1079.39 145.6C1108.73 145.6 1134.59 151.467 1156.99 163.2C1179.93 174.4 1197.79 192.533 1210.59 217.6C1223.93 242.133 1230.59 274.667 1230.59 315.2C1230.59 342.4 1227.13 369.067 1220.19 395.2C1213.26 421.333 1202.06 445.067 1186.59 466.4C1171.66 487.2 1151.93 504 1127.39 516.8C1103.39 529.067 1074.06 535.2 1039.39 535.2ZM1054.59 497.6C1076.99 497.6 1095.93 489.867 1111.39 474.4C1126.86 458.933 1138.33 438.667 1145.79 413.6C1153.79 388.533 1157.79 361.867 1157.79 333.6C1157.79 287.733 1148.46 250.933 1129.79 223.2C1111.13 194.933 1086.86 180.8 1056.99 180.8C1035.66 180.8 1017.53 187.733 1002.59 201.6C987.66 215.467 976.194 234.4 968.194 258.4C960.727 282.4 956.994 309.6 956.994 340C956.994 369.333 960.727 396 968.194 420C975.66 444 986.594 462.933 1000.99 476.8C1015.93 490.667 1033.79 497.6 1054.59 497.6ZM1302.41 524L1297.61 485.6C1300.27 486.133 1302.94 486.4 1305.61 486.4C1308.27 486.4 1310.94 486.4 1313.61 486.4C1327.47 486.4 1339.47 483.733 1349.61 478.4C1360.27 472.533 1366.14 462.667 1367.21 448.8C1369.87 421.6 1371.21 393.6 1371.21 364.8C1371.74 336 1372.01 311.467 1372.01 291.2C1372.01 268.8 1370.94 250.667 1368.81 236.8C1366.67 222.933 1360.01 212.8 1348.81 206.4C1338.14 199.467 1320.01 195.733 1294.41 195.2L1290.41 158.4C1302.67 158.4 1316.27 158.133 1331.21 157.6C1346.67 156.533 1361.87 155.467 1376.81 154.4C1392.27 153.333 1405.61 152.533 1416.81 152C1428.54 150.933 1436.54 150.133 1440.81 149.6C1440.81 152.267 1440.01 158.667 1438.41 168.8C1437.34 178.4 1436.01 188.533 1434.41 199.2C1432.81 209.867 1431.21 217.867 1429.61 223.2C1440.81 210.4 1454.67 198.4 1471.21 187.2C1487.74 175.467 1505.61 166.133 1524.81 159.2C1544.01 151.733 1563.47 148 1583.21 148C1606.67 148 1626.41 154.133 1642.41 166.4C1658.41 178.133 1669.07 198.667 1674.41 228C1675.47 232.267 1676.27 240.267 1676.81 252C1677.87 263.733 1678.14 277.867 1677.61 294.4L1676.01 358.4C1675.47 382.933 1674.67 400.8 1673.61 412C1673.07 423.2 1672.81 431.733 1672.81 437.6C1672.81 454.133 1675.74 466.4 1681.61 474.4C1687.47 482.4 1694.67 487.467 1703.21 489.6C1711.74 491.733 1720.01 492.8 1728.01 492.8L1733.61 524H1542.41L1536.01 490.4H1552.01C1569.07 490.4 1581.87 487.2 1590.41 480.8C1598.94 473.867 1604.54 460.533 1607.21 440.8C1608.27 433.333 1609.07 423.733 1609.61 412C1610.67 399.733 1611.21 387.2 1611.21 374.4C1611.74 361.6 1612.01 350.4 1612.01 340.8C1612.01 325.867 1611.47 311.467 1610.41 297.6C1609.87 283.733 1609.07 273.067 1608.01 265.6C1604.81 244.8 1596.81 229.867 1584.01 220.8C1571.74 211.2 1556.27 206.4 1537.61 206.4C1513.61 206.4 1493.34 211.733 1476.81 222.4C1460.27 233.067 1448.54 242.4 1441.61 250.4C1440.54 280.8 1439.47 312.8 1438.41 346.4C1437.87 379.467 1437.61 410.667 1437.61 440C1437.61 456.533 1440.27 468.8 1445.61 476.8C1451.47 484.267 1458.41 489.067 1466.41 491.2C1474.41 493.333 1482.41 494.4 1490.41 494.4L1496.01 524H1302.41ZM1774.46 524L1768.06 486.4C1786.73 485.333 1801.93 481.333 1813.66 474.4C1825.4 466.933 1833.93 455.467 1839.26 440L1972.86 44C1985.13 42.4 1997.4 39.7333 2009.66 36C2022.46 32.2666 2034.73 28.5333 2046.46 24.8L2188.86 431.2C2192.6 440.8 2196.6 450.4 2200.86 460C2205.66 469.6 2212.33 477.6 2220.86 484C2229.4 490.4 2240.6 493.6 2254.46 493.6L2260.06 524H2069.66L2064.06 488.8C2083.26 488.8 2098.2 486.933 2108.86 483.2C2119.53 479.467 2124.86 473.333 2124.86 464.8C2124.86 458.4 2121.93 445.6 2116.06 426.4C2110.73 406.667 2102.73 381.6 2092.06 351.2L1924.86 352.8C1917.4 377.867 1911.8 396.8 1908.06 409.6C1904.33 422.4 1901.93 432 1900.86 438.4C1899.8 444.267 1899.26 449.067 1899.26 452.8C1899.26 466.133 1902.46 475.733 1908.86 481.6C1915.26 486.933 1922.73 490.133 1931.26 491.2C1940.33 492.267 1948.86 492.8 1956.86 492.8H1960.06L1966.46 524H1774.46ZM2032.86 192L2008.06 92.8C1992.6 140.8 1979.26 182.4 1968.06 217.6C1956.86 252.8 1947.26 282.933 1939.26 308L2075.26 304.8C2063 271.2 2048.86 233.6 2032.86 192ZM2293.38 524L2288.58 485.6C2308.31 485.6 2324.31 482.667 2336.58 476.8C2349.38 470.933 2356.31 458.4 2357.38 439.2C2358.45 425.867 2359.25 409.333 2359.78 389.6C2360.31 369.867 2360.85 348.267 2361.38 324.8C2361.91 301.333 2362.18 278.4 2362.18 256C2362.18 227.733 2361.91 202.133 2361.38 179.2C2360.85 155.733 2360.31 139.733 2359.78 131.2C2359.25 118.933 2357.38 108.267 2354.18 99.2C2351.51 90.1333 2345.38 83.2 2335.78 78.4C2326.71 73.0666 2312.05 70.4 2291.78 70.4L2286.18 31.2C2319.25 32.8 2350.71 33.6 2380.58 33.6C2401.38 33.6 2421.11 33.3333 2439.78 32.8C2458.45 31.7333 2476.05 30.9333 2492.58 30.4L2497.38 68.8C2478.71 69.3333 2463.51 72.5333 2451.78 78.4C2440.05 83.7333 2433.38 96 2431.78 115.2C2429.65 143.467 2427.78 174.4 2426.18 208C2424.58 241.067 2423.78 277.067 2423.78 316C2423.78 335.2 2424.05 353.6 2424.58 371.2C2425.11 388.8 2425.65 408.267 2426.18 429.6C2427.25 451.467 2434.18 467.467 2446.98 477.6C2460.31 487.733 2474.98 492.8 2490.98 492.8L2497.38 524H2293.38Z"/></clipPath><linearGradient id="paint0_diamond_25_48" x1="0" y1="0" x2="500" y2="500" gradientUnits="userSpaceOnUse">
<stop stop-color="#FFE373"/>
<stop offset="0.538199" stop-color="#F4C09F"/>
<stop offset="1" stop-color="#DC73FF"/>
</linearGradient>
</defs>
</svg>
